<svg xmlns="http://www.w3.org/2000/svg" width="32" height="32" viewBox="0 0 32 32" fill="none">
  <defs>
    <linearGradient id="g" x1="0" y1="0" x2="32" y2="32">
      <stop stop-color="#f59e0b"/>
      <stop offset="1" stop-color="#ef4444"/>
    </linearGradient>
  </defs>
  <rect width="32" height="32" rx="8" fill="url(#g)"/>
  <!-- Neural O: 6 outer nodes + 1 center, connected -->
  <circle cx="16" cy="8" r="2.2" fill="#fff"/>
  <circle cx="23" cy="12" r="2.2" fill="#fff"/>
  <circle cx="23" cy="20" r="2.2" fill="#fff"/>
  <circle cx="16" cy="24" r="2.2" fill="#fff"/>
  <circle cx="9" cy="20" r="2.2" fill="#fff"/>
  <circle cx="9" cy="12" r="2.2" fill="#fff"/>
  <circle cx="16" cy="16" r="2.5" fill="#fff"/>
  <!-- Center connections -->
  <line x1="16" y1="16" x2="16" y2="8" stroke="#fff" stroke-width="1.2" opacity="0.45"/>
  <line x1="16" y1="16" x2="23" y2="12" stroke="#fff" stroke-width="1.2" opacity="0.45"/>
  <line x1="16" y1="16" x2="23" y2="20" stroke="#fff" stroke-width="1.2" opacity="0.45"/>
  <line x1="16" y1="16" x2="16" y2="24" stroke="#fff" stroke-width="1.2" opacity="0.45"/>
  <line x1="16" y1="16" x2="9" y2="20" stroke="#fff" stroke-width="1.2" opacity="0.45"/>
  <line x1="16" y1="16" x2="9" y2="12" stroke="#fff" stroke-width="1.2" opacity="0.45"/>
  <!-- Outer ring -->
  <line x1="16" y1="8" x2="23" y2="12" stroke="#fff" stroke-width="1" opacity="0.3"/>
  <line x1="23" y1="12" x2="23" y2="20" stroke="#fff" stroke-width="1" opacity="0.3"/>
  <line x1="23" y1="20" x2="16" y2="24" stroke="#fff" stroke-width="1" opacity="0.3"/>
  <line x1="16" y1="24" x2="9" y2="20" stroke="#fff" stroke-width="1" opacity="0.3"/>
  <line x1="9" y1="20" x2="9" y2="12" stroke="#fff" stroke-width="1" opacity="0.3"/>
  <line x1="9" y1="12" x2="16" y2="8" stroke="#fff" stroke-width="1" opacity="0.3"/>
</svg>
